<svg preserveAspectRatio="none" width="100%" height="100%" overflow="visible" style="display: block;" viewBox="0 0 12 13" fill="none" xmlns="http://www.w3.org/2000/svg">
<path id="Vector" d="M6 9.89861C5.27378 8.97968 4.8466 8.17418 4.7042 7.48498C4.56181 6.92501 4.61876 6.4799 4.86084 6.14966C5.11715 5.76198 5.50162 5.57533 6 5.57533C6.49838 5.57533 6.88285 5.76198 7.13916 6.14966C7.38124 6.4799 7.43819 6.92501 7.2958 7.48498C7.13916 8.18853 6.71198 8.9926 6 9.89861ZM9.97568 12.0236C8.76532 12.5549 7.56778 11.7078 6.54253 10.5591C8.23846 8.41827 8.55173 6.75271 7.82409 5.6744C7.3969 5.05699 6.7846 4.75547 6 4.75547C4.41941 4.75547 3.54937 6.10515 3.89112 7.67164C4.09048 8.51878 4.61734 9.48222 5.45747 10.5591C4.82732 11.2632 4.00059 12.0619 3.00827 12.1529C1.57008 12.3682 0.443726 10.9611 0.95635 9.5095L4.6031 1.89673C4.91435 1.32443 5.29849 0.834217 5.99858 0.834217C6.5112 0.834217 6.90991 1.13574 7.08078 1.37983L11.0408 9.5095C11.4288 10.4918 10.9368 11.6052 9.97568 12.0236ZM11.8126 9.22233L8.42215 2.1121C7.78137 0.791142 7.3257 0 6 0C4.68996 0 4.13319 0.918931 3.56361 2.1121L0.187414 9.22233C-0.538803 11.2339 0.95635 13 2.7662 13C2.88013 13 2.99321 12.9856 3.10795 12.9856C4.04776 12.8708 5.01747 12.2677 6 11.1894C6.98253 12.2663 7.95224 12.8708 8.89205 12.9856C9.00679 12.9856 9.11987 13 9.2338 13C11.0437 13.0014 12.5388 11.2339 11.8126 9.22233Z" fill="var(--fill-0, white)"/>
</svg>
