<svg preserveAspectRatio="none" width="100%" height="100%" overflow="visible" style="display: block;" viewBox="0 0 32 32" fill="none" xmlns="http://www.w3.org/2000/svg">
<g id="Face">
<g id="C-Bace/Radius/Circle/Fill" clip-path="url(#clip0_0_656)">
<circle id="&#230;&#164;&#173;&#229;&#156;&#134;&#229;&#189;&#162;" cx="16" cy="16" r="16" fill="var(--fill-0, #B6BAC5)"/>
<path id="Title" d="M21.4964 13.5955H19.1058C19.0376 13.2035 18.9119 12.8562 18.7287 12.5536C18.5455 12.2468 18.3175 11.9869 18.0447 11.7738C17.772 11.5607 17.4609 11.4009 17.1115 11.2944C16.7663 11.1836 16.3935 11.1282 15.9929 11.1282C15.2812 11.1282 14.6506 11.3072 14.1009 11.6651C13.5511 12.0188 13.1207 12.5387 12.8097 13.2248C12.4986 13.9066 12.343 14.7397 12.343 15.7241C12.343 16.7255 12.4986 17.5692 12.8097 18.2553C13.125 18.9371 13.5554 19.4528 14.1009 19.8022C14.6506 20.1474 15.2791 20.32 15.9865 20.32C16.3786 20.32 16.745 20.2688 17.0859 20.1665C17.4311 20.06 17.7401 19.9045 18.0128 19.6999C18.2898 19.4954 18.522 19.244 18.7095 18.9457C18.9013 18.6474 19.0334 18.3065 19.1058 17.9229L21.4964 17.9357C21.407 18.5579 21.2131 19.1417 20.9148 19.6871C20.6207 20.2326 20.2351 20.7141 19.7578 21.1317C19.2805 21.5451 18.7223 21.869 18.0831 22.1033C17.4439 22.3335 16.7344 22.4485 15.9545 22.4485C14.804 22.4485 13.777 22.1822 12.8736 21.6495C11.9702 21.1168 11.2585 20.3477 10.7386 19.342C10.2188 18.3363 9.95881 17.1303 9.95881 15.7241C9.95881 14.3136 10.2209 13.1076 10.745 12.1062C11.2692 11.1005 11.983 10.3313 12.8864 9.79865C13.7898 9.26598 14.8125 8.99964 15.9545 8.99964C16.6832 8.99964 17.3608 9.10192 17.9872 9.30646C18.6136 9.51101 19.1719 9.81143 19.6619 10.2077C20.152 10.5998 20.5547 11.0813 20.87 11.6523C21.1896 12.2191 21.3984 12.8668 21.4964 13.5955Z" fill="var(--fill-0, white)"/>
</g>
</g>
<defs>
<clipPath id="clip0_0_656">
<rect width="32" height="32" fill="white"/>
</clipPath>
</defs>
</svg>
