<svg preserveAspectRatio="none" width="100%" height="100%" overflow="visible" style="display: block;" viewBox="0 0 38 24" fill="none" xmlns="http://www.w3.org/2000/svg">
<g id="Union">
<path d="M17.8593 24H13.4943L21.6476 0H26.0126L17.8593 24Z" fill="var(--fill-0, white)"/>
<path fill-rule="evenodd" clip-rule="evenodd" d="M34.0579 12.6052C40.2672 14.5807 38.8576 23.8647 31.8193 24H19.4828L24.0207 10.8044C27.179 10.8044 32.4765 11.7851 33.101 7.73717C33.5538 4.80194 29.6409 3.22388 26.5095 3.22388L27.6007 0C38.4245 0 40.7708 9.27725 34.0579 12.6052ZM23.8169 20.6673H29.6368C34.6672 20.6673 34.7345 14.6873 29.8272 14.6873H23.6435L23.8169 20.6673Z" fill="var(--fill-0, white)"/>
<path fill-rule="evenodd" clip-rule="evenodd" d="M17.0961 8.95522L14.0709 17.9104H6.54744L4.36496 24H0L8.36618 0H13.8224L17.0961 8.95522ZM7.63868 13.9701H14.1861L10.9124 4.29851L7.63868 13.9701Z" fill="var(--fill-0, white)"/>
</g>
</svg>
