<svg width="38" height="28" viewBox="0 0 38 28" fill="none" xmlns="http://www.w3.org/2000/svg">
<path d="M17.8593 25H13.4943L21.6476 1H26.0126L17.8593 25Z" fill="white"/>
<path fill-rule="evenodd" clip-rule="evenodd" d="M34.0579 13.6052C40.2672 15.5807 38.8576 24.8647 31.8193 25H19.4828L24.0207 11.8044C27.179 11.8044 32.4765 12.7851 33.101 8.73717C33.5538 5.80194 29.6409 4.22388 26.5095 4.22388L27.6007 1C38.4245 1 40.7708 10.2773 34.0579 13.6052ZM23.8169 21.6673H29.6368C34.6672 21.6673 34.7345 15.6873 29.8272 15.6873H23.6435L23.8169 21.6673Z" fill="white"/>
<path fill-rule="evenodd" clip-rule="evenodd" d="M17.0961 9.95522L14.0709 18.9104H6.54744L4.36496 25H0L8.36618 1H13.8224L17.0961 9.95522ZM7.63868 14.9701H14.1861L10.9124 5.29851L7.63868 14.9701Z" fill="white"/>
</svg>
